<?xml version="1.0" encoding="UTF-8"?>
<svg xmlns:xodm="http://www.corel.com/coreldraw/odm/2003" xmlns="http://www.w3.org/2000/svg" xmlns:xlink="http://www.w3.org/1999/xlink" version="1.1" id="Layer_1" x="0px" y="0px" viewBox="0 0 595.3 841.9" style="enable-background:new 0 0 595.3 841.9;" xml:space="preserve">
<style type="text/css">
	.st0{fill:#0052FF;}
</style>
<g id="Layer_x0020_1">
	<path class="st0" d="M120.1,397.5c-21.6,0-38.5,16.4-38.5,38.4c0,22,16.5,38.3,38.5,38.3c22.1,0,38.8-16.6,38.8-38.4   C159,414,142.5,397.5,120.1,397.5z M120.3,458.3c-12.3,0-21.3-9.6-21.3-22.4c0-13,8.9-22.5,21.2-22.5c12.5,0,21.5,9.7,21.5,22.5   C141.6,448.7,132.6,458.3,120.3,458.3z M163.7,414.2h10.7v58.5l17.2,0v-73.8h-27.9V414.2z M38.4,413.3c9,0,16.2,5.6,18.9,13.8h18.2   c-3.3-17.7-17.9-29.7-36.9-29.7C16.9,397.5,0,413.9,0,435.9s16.5,38.3,38.5,38.3c18.6,0,33.5-12,36.8-29.8h-18   c-2.6,8.3-9.7,14-18.8,14c-12.5,0-21.2-9.6-21.2-22.4C17.3,422.9,25.9,413.3,38.4,413.3z M490.2,428.7l-12.6-1.9   c-6-0.9-10.3-2.9-10.3-7.6c0-5.1,5.6-7.7,13.2-7.7c8.3,0,13.6,3.6,14.8,9.4h16.6c-1.9-14.8-13.3-23.5-30.9-23.5   c-18.2,0-30.2,9.3-30.2,22.4c0,12.6,7.9,19.8,23.8,22.1l12.6,1.9c6.2,0.9,9.6,3.3,9.6,7.9c0,5.9-6,8.3-14.3,8.3   c-10.2,0-15.9-4.1-16.8-10.4h-16.9c1.6,14.4,12.9,24.5,33.5,24.5c18.8,0,31.2-8.6,31.2-23.3C513.4,437.7,504.3,430.9,490.2,428.7   L490.2,428.7z M183,368.5c-6.3,0-11,4.6-11,10.8c0,6.3,4.7,10.8,11,10.8c6.3,0,11-4.6,11-10.8C194,373.1,189.3,368.5,183,368.5z    M435.2,424.2c0-16-9.7-26.7-30.4-26.7c-19.5,0-30.4,9.9-32.5,25h17c0.9-5.9,5.4-10.7,15.2-10.7c8.7,0,13,3.9,13,8.6   c0,6.1-7.9,7.7-17.6,8.7c-13.2,1.4-29.5,6-29.5,23.1c0,13.3,9.9,21.8,25.6,21.8c12.3,0,20-5.1,23.9-13.3c0.6,7.3,6,12,13.6,12h10   v-15.3h-8.5L435.2,424.2L435.2,424.2z M418.3,442.7c0,9.9-8.6,17.1-19,17.1c-6.4,0-11.9-2.7-11.9-8.4c0-7.3,8.7-9.3,16.8-10.1   c7.7-0.7,12-2.4,14.2-5.7C418.3,435.6,418.3,442.7,418.3,442.7z M327.1,397.5c-9.6,0-17.6,4-23.3,10.7v-40.4h-17.2v104.9l16.9,0   V463c5.7,7,13.9,11.1,23.6,11.1c20.6,0,36.2-16.3,36.2-38.3S347.4,397.5,327.1,397.5L327.1,397.5z M324.5,458.3   c-12.3,0-21.3-9.6-21.3-22.4c0-12.8,9.2-22.5,21.5-22.5c12.5,0,21.2,9.6,21.2,22.5C345.8,448.7,336.8,458.3,324.5,458.3z    M245.4,397.5c-11.2,0-18.5,4.6-22.8,11v-9.6h-17v73.8h17.2v-40.1c0-11.3,7.2-19.3,17.8-19.3c9.9,0,16,7,16,17.1v42.3h17.2v-43.5   C273.8,410.6,264.2,397.5,245.4,397.5L245.4,397.5z M595.3,433.4c0-21.1-15.5-36-36.2-36c-22.1,0-38.2,16.6-38.2,38.4   c0,23,17.3,38.3,38.5,38.3c17.9,0,31.9-10.6,35.5-25.5h-17.9c-2.6,6.6-8.9,10.3-17.3,10.3c-11,0-19.3-6.9-21.2-18.8h56.9   L595.3,433.4C595.3,433.4,595.3,433.4,595.3,433.4z M539.4,427.7c2.7-10.3,10.5-15.3,19.3-15.3c9.7,0,17.2,5.6,18.9,15.3H539.4z"></path>
</g>
</svg>
